<svg width="121" height="49" viewBox="0 0 121 49" fill="none" xmlns="http://www.w3.org/2000/svg">
<path d="M106.68 1.20402C107.289 0.48241 108.553 1.12505 108.568 1.99099C108.894 6.17361 109.044 10.3658 109.338 14.5498C109.379 14.9528 109.39 15.4198 109.718 15.7098C110.152 16.0937 110.771 16.0338 111.31 16.0583C112.941 16.072 114.602 16.1577 116.203 15.7806C116.934 15.6145 117.772 15.1856 117.83 14.3401C116.526 14.1604 115.201 13.9262 114.019 13.3217C113.359 12.9772 112.723 12.4557 112.508 11.715C112.294 10.9825 112.521 10.2065 112.867 9.5543C113.381 8.57808 114.207 7.72168 115.264 7.34998C116.477 6.9102 117.949 7.14983 118.893 8.05117C119.896 9.01241 120.599 10.2841 120.861 11.6497C121.08 12.8097 121.032 14.0147 120.774 15.1638C120.601 15.8854 120.025 16.4219 119.415 16.7976C118.632 17.2715 117.757 17.571 116.873 17.797C114.92 18.2654 112.911 18.4887 110.904 18.4887C110.245 18.49 109.56 18.4179 108.972 18.0993C108.651 17.9386 108.363 17.718 108.037 17.5724C107.725 17.6677 107.501 17.9413 107.22 18.0965C106.488 18.554 105.59 18.4819 104.766 18.4873C103.843 18.4887 102.871 18.5418 102.016 18.1279C101.567 17.9155 101.183 17.5941 100.804 17.2769C99.4902 18.2558 97.7992 18.4832 96.2035 18.4873C95.5118 18.4968 94.8202 18.4397 94.1408 18.3103C93.9501 19.4336 93.7555 20.5909 93.1727 21.5875C92.4906 22.832 91.6464 24.0628 90.4047 24.8035C89.5401 25.3222 88.4877 25.5264 87.4938 25.359C86.9178 25.25 86.3038 24.9151 86.135 24.316C85.9879 23.8463 86.297 23.3466 86.7354 23.1737C87.2814 22.9654 87.8832 22.9504 88.4155 22.6972C89.6327 22.188 90.4701 21.0538 90.903 19.8393C91.6655 17.7548 91.5593 15.4892 91.3646 13.3162C91.3265 12.3672 91.1903 11.3624 91.5607 10.4597C91.8193 9.78576 92.7656 9.62237 93.3007 10.0608C93.6738 10.3671 93.8644 10.8301 94.0128 11.2766C94.3899 12.4639 94.3967 13.7219 94.4185 14.9555C94.4403 15.6417 95.1606 16.0638 95.7909 16.0447C96.8148 16.0556 97.9476 16.1319 98.8449 15.5464C99.6305 14.9854 99.7217 13.9343 99.7203 13.048C99.7176 12.2175 99.783 11.2249 100.51 10.6857C100.991 10.3317 101.669 10.6925 101.825 11.2208C102.241 12.4598 102.141 13.8241 102.653 15.0372C102.846 15.526 103.282 15.9249 103.809 16.0107C104.309 16.0869 104.817 16.0515 105.32 16.057C105.689 16.0529 106.128 16.0447 106.377 15.7234C106.728 15.2673 106.66 14.6505 106.61 14.1127C106.189 10.8232 105.745 7.50928 105.887 4.18578C105.986 3.17008 106.019 2.03728 106.68 1.20402ZM115.296 11.2167C115.841 11.8199 116.748 11.9193 117.496 11.7042C117.334 10.9349 116.874 10.1261 116.064 9.91919C115.389 9.78576 114.874 10.6898 115.296 11.2167Z" fill="#31703F"/>
<path d="M115.707 2.75164C116.402 2.41398 117.298 2.78976 117.551 3.51545C117.968 4.39637 117.341 5.60404 116.347 5.67076C115.545 5.70071 114.942 4.926 114.828 4.1935C114.734 3.57945 115.145 2.97629 115.707 2.75164Z" fill="#31703F"/>
<path d="M100.608 7.03487C101.084 5.72508 103.326 5.72644 103.771 7.05802C104.106 8.0356 103.12 8.94918 102.19 8.97914C101.556 9.04177 100.989 8.60744 100.744 8.04377C100.088 8.84979 98.8352 9.27868 97.8781 8.77491C97.2382 8.41002 96.7153 7.43108 97.3144 6.80886C98.2266 5.98513 99.7965 6.12128 100.608 7.03487Z" fill="#31703F"/>
<path d="M86.7124 29.657C88.9344 29.6366 91.1578 29.6529 93.3798 29.6488C93.3839 30.4304 93.3757 31.2119 93.3866 31.9948C93.2369 31.3208 92.8502 30.6019 92.1122 30.4603C91.2368 30.301 90.3382 30.4127 89.4532 30.3827C89.4545 31.5768 89.4545 32.7708 89.4532 33.9649C90.4893 33.969 91.5241 33.9649 92.5602 33.9676C92.5588 34.2249 92.5588 34.4823 92.5602 34.741C91.5241 34.7437 90.4893 34.7396 89.4545 34.7437C89.4559 36.4034 89.4532 38.0645 89.4545 39.7255C88.9412 39.7269 88.4266 39.7269 87.9146 39.7255C87.9146 37.4096 87.9133 35.0922 87.9146 32.7749C87.901 32.0206 87.9609 31.235 87.6913 30.5161C87.5334 30.0804 87.1168 29.8272 86.7124 29.657Z" fill="#31703F"/>
<path d="M97.9709 29.6409C98.8151 29.6558 99.6593 29.6436 100.503 29.649C100.505 33.0079 100.503 36.3668 100.505 39.7257C99.9915 39.7271 99.4782 39.7271 98.9649 39.7257C98.9676 37.2736 98.9649 34.8229 98.9676 32.3721C98.9513 31.6927 99.0316 30.9752 98.7525 30.3366C98.6081 29.9976 98.2746 29.8124 97.9709 29.6409Z" fill="#31703F"/>
<path d="M95.2888 29.9963C95.8524 29.7158 96.6939 30.0657 96.7402 30.7356C96.7824 31.5103 95.7476 31.9215 95.1622 31.4994C94.593 31.1726 94.6761 30.225 95.2888 29.9963Z" fill="#31703F"/>
<path d="M103.291 30.6649C103.801 30.5273 104.304 30.3626 104.81 30.2087C104.81 30.9331 104.809 31.6574 104.812 32.3831C105.428 32.3831 106.046 32.3831 106.666 32.3845C106.665 32.6227 106.663 32.8624 106.665 33.102C106.046 33.102 105.428 33.102 104.812 33.102C104.813 34.4976 104.803 35.8931 104.814 37.2887C104.829 37.8401 104.923 38.4719 105.386 38.8354C105.755 39.1268 106.252 39.0696 106.695 39.0873C106.693 39.2997 106.693 39.5135 106.695 39.7286C105.758 39.7395 104.677 39.749 103.97 39.0301C103.234 38.2853 103.262 37.1607 103.272 36.1886C103.273 35.1593 103.274 34.13 103.272 33.102C102.888 33.102 102.504 33.102 102.123 33.102C102.12 32.8624 102.121 32.6227 102.121 32.3845C102.504 32.3831 102.888 32.3831 103.273 32.3831C103.274 31.8099 103.261 31.2367 103.291 30.6649Z" fill="#31703F"/>
<path d="M22.7231 0.0506025C27.3809 0.0220103 32.0387 0.0465184 36.6951 0.0383492C38.8287 -0.0310889 40.9635 0.0192877 43.0984 0.00431088C44.7935 -0.0201967 46.5118 0.0492411 48.1579 0.489016C51.0389 1.37265 53.6571 3.1549 55.4639 5.5757C56.8186 7.48048 57.8057 9.73246 57.8615 12.0974C57.8983 12.3847 57.8533 12.7986 58.1924 12.9212C58.5504 13.026 58.9303 13.0137 59.3006 13.0355C60.9277 13.06 62.552 13.1458 64.1749 13.267C66.2907 13.4767 68.3126 14.3058 70.0527 15.5135C72.1399 16.9731 73.9875 18.8493 75.1543 21.1326C75.7125 22.2177 76.1006 23.3832 76.3443 24.5772C76.6983 26.4698 76.8862 28.4004 76.7582 30.327C76.7882 30.8389 76.618 31.517 77.0836 31.8764C77.7303 32.0847 78.5064 32.0248 79.0388 32.5204C79.6746 33.2556 79.5262 34.7629 78.4751 35.0256C77.2511 35.1346 76.0189 35.0964 74.7935 35.042C74.3156 35.0297 73.9017 34.6567 73.8391 34.1828C73.5001 32.3284 73.6444 30.4332 73.5613 28.5597C73.5858 26.8347 73.3312 25.0865 72.66 23.488C71.6579 21.059 69.7327 19.1216 67.5434 17.7246C66.3697 16.9881 65.0354 16.5142 63.6644 16.3182C62.4444 16.1276 61.2068 16.2338 59.9787 16.2065C56.3924 16.2324 52.8075 16.1534 49.2199 16.1725C46.3606 16.1739 43.5001 16.1698 40.6395 16.1752C40.1847 16.1766 39.7341 16.0922 39.278 16.1017C32.3818 16.114 25.4843 16.0922 18.5868 16.1126C15.8024 16.0935 12.9773 16.9404 10.8083 18.7213C8.71838 20.3088 7.48756 22.7841 6.9375 25.3057C6.45143 28.0451 6.66111 30.8416 6.59439 33.6096C6.56035 33.995 6.50589 34.4238 6.20772 34.7043C5.96128 34.9521 5.59911 35.0188 5.26418 35.0501C4.16542 35.1277 3.06258 35.1032 1.96382 35.0447C1.44916 35.0079 0.889575 34.7016 0.773845 34.1638C0.639053 33.5143 0.831029 32.7287 1.41104 32.3475C1.88622 32.0289 2.49074 32.161 3.02173 32.0398C3.25456 31.9976 3.41522 31.7661 3.43019 31.5401C3.50508 29.137 3.2423 26.6931 3.81006 24.3294C4.42547 21.5465 5.97762 19.0181 8.0594 17.0888C8.76195 16.3822 9.65784 15.8593 10.2229 15.022C10.7076 14.3263 10.7307 13.4467 10.7934 12.6325C10.8859 10.9115 11.1065 9.16742 11.775 7.5649C12.4789 5.83303 13.6825 4.3367 15.1149 3.14809C16.2381 2.23041 17.4621 1.41214 18.8196 0.881138C20.0613 0.384179 21.3902 0.126848 22.7231 0.0506025ZM24.0805 3.031C23.668 3.11541 23.6898 3.62735 23.6666 3.95684C23.6489 6.62544 23.6612 9.29404 23.6612 11.9626C23.6871 12.2608 23.6421 12.5917 23.7987 12.8599C24.0247 13.0206 24.3188 12.9933 24.5816 13.0083C34.3397 13.0029 44.0964 13.011 53.8545 13.0042C54.1486 12.9797 54.4999 13.0192 54.7245 12.7836C54.794 12.412 54.6537 12.0443 54.5911 11.6808C54.3147 10.2185 53.7796 8.79164 52.9219 7.56898C51.6761 5.79763 49.872 4.40614 47.8338 3.67092C45.123 2.76141 42.2257 3.08818 39.4196 2.96564C34.563 2.96428 29.7078 2.967 24.8512 2.96428C24.5938 2.96837 24.3324 2.97517 24.0805 3.031ZM19.7196 3.98271C16.3362 5.23804 13.8799 8.74398 13.9603 12.3711C13.9657 12.6135 13.9998 12.8926 14.2054 13.0546C14.464 13.2983 14.8494 13.2275 15.1748 13.2479C16.7187 13.2261 18.2641 13.2779 19.8053 13.2221C20.2179 13.252 20.5365 12.9184 20.482 12.5086C20.5092 9.91898 20.4834 7.32663 20.4943 4.73563C20.4711 4.4715 20.5174 4.16379 20.3459 3.9405C20.1416 3.83158 19.9211 3.91871 19.7196 3.98271Z" fill="#31703F"/>
<path d="M18.8045 19.5487C21.2157 19.2533 23.725 19.7026 25.8545 20.883C28.2767 22.1982 30.1978 24.4053 31.1645 26.9854C32.1951 29.6962 32.1665 32.7937 31.0828 35.4841C30.1365 37.8599 28.3815 39.9022 26.1744 41.1943C23.7986 42.6131 20.9053 43.1059 18.1877 42.6158C15.3121 42.1161 12.6626 40.4673 10.928 38.1214C9.31868 35.9892 8.49223 33.2852 8.6243 30.6166C8.72369 27.8772 9.84696 25.1936 11.7163 23.1908C13.553 21.1934 16.1086 19.8755 18.8045 19.5487ZM19.4117 22.732C16.321 23.0206 13.5081 25.1718 12.4107 28.0746C11.5843 30.1755 11.6578 32.6099 12.6109 34.6563C13.4441 36.4753 14.9459 37.9825 16.7717 38.8062C18.671 39.6898 20.9067 39.8083 22.8932 39.148C25.0988 38.425 26.975 36.7503 27.9267 34.6318C28.7396 32.8781 28.9125 30.8399 28.4101 28.9732C27.9363 27.161 26.8307 25.5258 25.3371 24.3971C23.6638 23.1227 21.503 22.5141 19.4117 22.732Z" fill="#31703F"/>
<path d="M57.9186 19.6019C60.5082 19.1948 63.2381 19.6714 65.5119 20.9852C67.6753 22.2106 69.4222 24.1549 70.4147 26.4355C71.4754 28.8386 71.6742 31.6038 71.0016 34.1404C70.329 36.7164 68.7319 39.0378 66.5698 40.5899C64.5969 42.0386 62.1489 42.8174 59.7036 42.7956C57.1834 42.8038 54.6645 41.9596 52.674 40.4116C52.4929 40.5913 52.3132 40.771 52.1335 40.9521C52.4561 41.2843 52.7884 41.6084 53.1342 41.9188C51.2403 43.9094 49.2525 45.8101 47.3259 47.7707C46.8684 48.2486 46.3347 48.6815 45.6866 48.8599C44.3823 49.2847 42.8083 48.7142 42.1126 47.5229C41.3474 46.3411 41.5557 44.665 42.5428 43.6725C44.5838 41.6125 46.641 39.5688 48.6915 37.517C49.0251 37.8437 49.3546 38.1732 49.6868 38.5014C49.8733 38.3107 50.0612 38.1201 50.2491 37.9295C48.7759 35.8518 47.9958 33.2935 48.0938 30.7447C48.166 28.0271 49.2348 25.3462 51.0633 23.3325C52.8265 21.3461 55.2936 20.0009 57.9186 19.6019ZM58.9071 22.7294C55.8001 23.0126 52.9749 25.1788 51.8761 28.0952C51.0837 30.1279 51.1259 32.4711 52.0027 34.4699C52.9123 36.6034 54.7435 38.323 56.9342 39.0855C58.9044 39.7948 61.14 39.7199 63.0598 38.8839C64.8134 38.1378 66.2879 36.7681 67.1798 35.0866C68.0811 33.3956 68.3888 31.3914 68.0076 29.5098C67.5651 27.1666 66.0578 25.0576 64.0006 23.8567C62.4825 22.9472 60.6662 22.5565 58.9071 22.7294ZM49.6677 40.0875C49.3369 39.758 49.0074 39.4286 48.6765 39.0991C46.912 40.8623 45.1474 42.6241 43.387 44.39C42.8887 44.8583 42.6463 45.5786 42.792 46.2512C42.9363 47.1103 43.6988 47.8156 44.5688 47.8823C45.3081 47.9926 45.9916 47.5746 46.4749 47.0518C48.1591 45.3499 49.8338 43.6411 51.5357 41.9569C51.1926 41.6152 50.8509 41.2734 50.5105 40.9303C50.9516 40.5232 51.4037 40.1284 51.8217 39.6954C51.514 39.4245 51.2348 39.1249 50.9612 38.8213C50.5309 39.2434 50.1211 39.6872 49.6677 40.0875Z" fill="#31703F"/>
<path d="M19.0618 25.9228C20.2368 25.6736 21.5031 25.7839 22.5868 26.3204C23.8054 26.9031 24.7857 27.9719 25.2568 29.2395C25.7388 30.5166 25.7075 31.9802 25.1697 33.2356C24.6877 34.3847 23.7795 35.3446 22.6672 35.9015C21.3506 36.5768 19.7467 36.6503 18.3661 36.1234C16.9719 35.6033 15.8214 34.4623 15.2931 33.0708C14.7648 31.7134 14.822 30.1394 15.4483 28.8256C16.1291 27.3755 17.4988 26.2741 19.0618 25.9228ZM19.8638 28.9141C18.863 29.0897 18.0529 30.0047 18.0175 31.0231C17.9399 32.1981 18.9175 33.3091 20.0939 33.3785C21.3424 33.5011 22.5351 32.405 22.5092 31.1511C22.5664 29.7977 21.1899 28.6281 19.8638 28.9141Z" fill="#31703F"/>
<path d="M36.1942 26.1549C39.1269 26.1454 42.0611 26.1168 44.9924 26.1835C45.4131 26.1862 45.8066 26.3728 46.1429 26.6124C46.7924 27.0603 46.757 28.1536 46.1184 28.5961C45.7086 28.8712 45.2157 29.0155 44.7228 29.0046C41.6812 29.0754 38.6382 29.0264 35.5951 29.0346C34.4011 29.1108 33.6291 27.4388 34.4419 26.577C34.8994 26.1059 35.5979 26.1917 36.1942 26.1549Z" fill="#31703F"/>
<path d="M35.4112 32.2198C38.1942 32.0373 40.9867 32.1231 43.7737 32.1027C44.4872 32.134 45.2455 32.0932 45.9032 32.4145C46.5118 32.729 46.554 33.5418 46.4056 34.1314C46.2885 34.7032 45.6812 35.0381 45.1312 35.0286C41.9139 35.0313 38.6979 35.0981 35.4806 35.0558C34.7509 35.0654 34.0783 34.4758 34.0483 33.7352C33.923 32.9414 34.6365 32.2279 35.4112 32.2198Z" fill="#31703F"/>
<path d="M108.529 33.257C109.248 32.4401 110.407 32.1542 111.459 32.2685C112.202 32.3352 112.929 32.7015 113.362 33.3183C113.916 34.0794 114.038 35.0501 114.064 35.9664C112.447 35.9692 110.829 35.9651 109.212 35.9692C109.244 36.9277 109.454 37.9938 110.242 38.6269C111.129 39.343 112.381 39.2028 113.401 38.8924C113.398 39.1279 113.398 39.3635 113.4 39.6004C112.24 39.8986 110.965 40.0442 109.824 39.5949C108.565 39.1007 107.753 37.7963 107.666 36.4729C107.58 35.3538 107.766 34.1257 108.529 33.257ZM109.793 33.4517C109.355 33.9527 109.266 34.6403 109.209 35.2775C110.291 35.2789 111.374 35.2789 112.457 35.2775C112.422 34.6539 112.391 33.9772 111.999 33.4585C111.479 32.7764 110.332 32.8118 109.793 33.4517Z" fill="#31703F"/>
<path d="M117.442 33.1278C118.27 32.4062 119.43 32.014 120.508 32.3721C120.504 33.1564 120.504 33.9406 120.507 34.7248C120.356 34.3259 120.229 33.8861 119.89 33.6002C119.16 32.9562 117.875 33.2966 117.456 34.1408C117.421 36.0006 117.453 37.8645 117.442 39.7271C116.929 39.7271 116.417 39.7271 115.905 39.7271C115.901 37.8659 115.912 36.0047 115.899 34.1435C115.922 33.4505 115.735 32.6703 115.039 32.3694C115.838 32.398 116.64 32.3776 117.441 32.3844C117.441 32.6322 117.439 32.8786 117.442 33.1278Z" fill="#31703F"/>
<path d="M94.0876 32.3721C94.9345 32.3952 95.78 32.3775 96.6269 32.3843C96.6283 34.831 96.6283 37.279 96.6269 39.7271C96.1136 39.7271 95.6003 39.7271 95.0884 39.7271C95.087 37.9543 95.0897 36.183 95.087 34.4103C95.0775 33.9446 95.072 33.4531 94.8542 33.0297C94.6962 32.7152 94.3722 32.5491 94.0876 32.3721Z" fill="#31703F"/>
</svg>
